<svg xmlns="http://www.w3.org/2000/svg" version="1.1" xmlns:xlink="http://www.w3.org/1999/xlink" xmlns:svgjs="http://svgjs.com/svgjs" width="270" height="485" preserveAspectRatio="none" viewBox="0 0 270 485"><g mask="url(&quot;#SvgjsMask6853&quot;)" fill="none"><rect width="100.6" height="100.6" clip-path="url(&quot;#SvgjsClipPath6854&quot;)" x="89.66" y="-44.35" fill="url(#SvgjsPattern6855)" transform="rotate(95.74, 139.96, 5.95)"></rect><path d="M202.05 440.65a5.6 5.6 0 1 0-10.75 3.14 5.6 5.6 0 1 0 10.75-3.14zM186.69 445.14a5.6 5.6 0 1 0-10.75 3.15 5.6 5.6 0 1 0 10.75-3.15zM171.33 449.63a5.6 5.6 0 1 0-10.75 3.15 5.6 5.6 0 1 0 10.75-3.15zM155.98 454.13a5.6 5.6 0 1 0-10.75 3.14 5.6 5.6 0 1 0 10.75-3.14zM228.26 416.3a5.6 5.6 0 1 0-10.74 3.15 5.6 5.6 0 1 0 10.74-3.15zM212.91 420.8a5.6 5.6 0 1 0-10.75 3.14 5.6 5.6 0 1 0 10.75-3.14zM197.55 425.29a5.6 5.6 0 1 0-10.75 3.15 5.6 5.6 0 1 0 10.75-3.15zM182.2 429.78a5.6 5.6 0 1 0-10.75 3.15 5.6 5.6 0 1 0 10.75-3.15z" fill="#e73635"></path><circle r="29.0725013624284" cx="22.51" cy="429.35" stroke="#e73635" stroke-width="1"></circle><rect width="171" height="171" clip-path="url(&quot;#SvgjsClipPath6856&quot;)" x="114.47" y="48.63" fill="url(#SvgjsPattern6857)" transform="rotate(85.34, 199.97, 134.13)"></rect><rect width="60" height="60" clip-path="url(&quot;#SvgjsClipPath6858&quot;)" x="114.7" y="226.35" fill="url(#SvgjsPattern6859)" transform="rotate(143.09, 144.7, 256.35)"></rect><rect width="96.6" height="96.6" clip-path="url(&quot;#SvgjsClipPath6860&quot;)" x="89.09" y="-6.33" fill="url(#SvgjsPattern6861)" transform="rotate(124.95, 137.39, 41.97)"></rect><rect width="81.8" height="81.8" clip-path="url(&quot;#SvgjsClipPath6862&quot;)" x="208.16" y="162.59" fill="url(#SvgjsPattern6863)" transform="rotate(313.83, 249.06, 203.49)"></rect><rect width="180" height="180" clip-path="url(&quot;#SvgjsClipPath6864&quot;)" x="57.54" y="269.2" fill="url(#SvgjsPattern6865)" transform="rotate(11, 147.54, 359.2)"></rect><path d="M263.98 49.04 L240.02999999999997 53.56L238.10924623145863 37.40424623145863z" fill="#d3b714"></path></g><defs><mask id="SvgjsMask6853"><rect width="270" height="485" fill="#ffffff"></rect></mask><pattern x="0" y="0" width="10.06" height="10.06" patternUnits="userSpaceOnUse" id="SvgjsPattern6855"><path d="M5.03 1L5.03 9.06M1 5.03L9.06 5.03" stroke="#d3b714" fill="none" stroke-width="2.8"></path></pattern><clipPath id="SvgjsClipPath6854"><circle r="25.15" cx="139.96" cy="5.95"></circle></clipPath><pattern x="0" y="0" width="171" height="9.5" patternUnits="userSpaceOnUse" id="SvgjsPattern6857"><rect width="171" height="4.75" x="0" y="0" fill="#037b0b"></rect><rect width="171" height="4.75" x="0" y="4.75" fill="rgba(0, 0, 0, 0)"></rect></pattern><clipPath id="SvgjsClipPath6856"><circle r="42.75" cx="199.97" cy="134.13"></circle></clipPath><pattern x="0" y="0" width="6" height="6" patternUnits="userSpaceOnUse" id="SvgjsPattern6859"><path d="M0 6L3 0L6 6" stroke="#037b0b" fill="none"></path></pattern><clipPath id="SvgjsClipPath6858"><circle r="15" cx="144.7" cy="256.35"></circle></clipPath><pattern x="0" y="0" width="9.66" height="9.66" patternUnits="userSpaceOnUse" id="SvgjsPattern6861"><path d="M4.83 1L4.83 8.66M1 4.83L8.66 4.83" stroke="#d3b714" fill="none" stroke-width="3.82"></path></pattern><clipPath id="SvgjsClipPath6860"><circle r="24.15" cx="137.39" cy="41.97"></circle></clipPath><pattern x="0" y="0" width="8.18" height="8.18" patternUnits="userSpaceOnUse" id="SvgjsPattern6863"><path d="M0 8.18L4.09 0L8.18 8.18" stroke="#e73635" fill="none"></path></pattern><clipPath id="SvgjsClipPath6862"><circle r="20.45" cx="249.06" cy="203.49"></circle></clipPath><pattern x="0" y="0" width="180" height="6" patternUnits="userSpaceOnUse" id="SvgjsPattern6865"><rect width="180" height="3" x="0" y="0" fill="#d3b714"></rect><rect width="180" height="3" x="0" y="3" fill="rgba(0, 0, 0, 0)"></rect></pattern><clipPath id="SvgjsClipPath6864"><circle r="45" cx="147.54" cy="359.2"></circle></clipPath></defs></svg>